<svg width="133" height="108" viewBox="0 0 133 108" fill="none" xmlns="http://www.w3.org/2000/svg">
<g id="adv2" clip-path="url(#clip0_88_673)" filter="url(#filter0_dddddd_88_673)">
<path id="Vector" d="M49.5176 43.4506H52.9015C53.799 43.4506 54.6597 43.8182 55.2943 44.4726C55.9289 45.127 56.2854 46.0146 56.2854 46.9401C56.2854 47.8655 55.9289 48.7531 55.2943 49.4075C54.6597 50.0619 53.799 50.4295 52.9015 50.4295H49.5176V53.919C49.5176 54.8445 49.1611 55.732 48.5264 56.3865C47.8918 57.0409 47.0311 57.4085 46.1336 57.4085C45.2362 57.4085 44.3755 57.0409 43.7409 56.3865C43.1062 55.732 42.7497 54.8445 42.7497 53.919V50.4295H39.3658C38.4683 50.4295 37.6076 50.0619 36.973 49.4075C36.3384 48.7531 35.9819 47.8655 35.9819 46.9401C35.9819 46.0146 36.3384 45.127 36.973 44.4726C37.6076 43.8182 38.4683 43.4506 39.3658 43.4506H42.7497V39.9611C42.7497 39.0356 43.1062 38.1481 43.7409 37.4937C44.3755 36.8393 45.2362 36.4716 46.1336 36.4716C47.0311 36.4716 47.8918 36.8393 48.5264 37.4937C49.1611 38.1481 49.5176 39.0356 49.5176 39.9611V43.4506ZM57.3615 29.4927H75.5129C78.5721 27.3989 82.1246 26.1997 85.7923 26.0229C89.46 25.846 93.1055 26.698 96.3408 28.4882C99.5762 30.2784 102.28 32.9398 104.165 36.1891C106.05 39.4384 107.045 43.1539 107.044 46.9401C107.044 58.5042 97.9552 81.8349 86.7408 81.8349C80.0542 81.8349 74.1221 73.5369 70.4235 64.3875H62.451C58.7557 73.5369 52.8203 81.8349 46.1336 81.8349C34.9193 81.8349 25.8301 58.5042 25.8301 46.9401C25.8295 43.1539 26.8246 39.4384 28.7095 36.1891C30.5943 32.9398 33.2983 30.2784 36.5336 28.4882C39.7689 26.698 43.4145 25.846 47.0822 26.0229C50.7498 26.1997 54.3024 27.3989 57.3615 29.4927ZM77.5568 36.4716H55.3176L53.6121 35.3027C51.5724 33.9084 49.2042 33.1105 46.7596 32.9938C44.315 32.8771 41.8855 33.446 39.7295 34.6399C37.5736 35.8339 35.7718 37.6082 34.516 39.7741C33.2602 41.9401 32.5974 44.4165 32.5979 46.9401C32.5979 57.8168 41.1999 74.8559 46.1336 74.8559C48.5768 74.8559 52.915 69.838 56.2042 61.7006L57.9436 57.4085H74.9377L76.6736 61.7006C79.9594 69.838 84.2976 74.8559 86.7408 74.8559C91.6746 74.8559 100.277 57.8168 100.277 46.9401C100.277 44.4165 99.6142 41.9401 98.3584 39.7741C97.1026 37.6082 95.3009 35.8339 93.1449 34.6399C90.989 33.446 88.5594 32.8771 86.1148 32.9938C83.6703 33.1105 81.3021 33.9084 79.2623 35.3027L77.5568 36.4716ZM86.7408 43.4506C85.8433 43.4506 84.9826 43.0829 84.348 42.4285C83.7134 41.7741 83.3569 40.8866 83.3569 39.9611C83.3569 39.0356 83.7134 38.1481 84.348 37.4937C84.9826 36.8393 85.8433 36.4716 86.7408 36.4716C87.6383 36.4716 88.499 36.8393 89.1336 37.4937C89.7682 38.1481 90.1247 39.0356 90.1247 39.9611C90.1247 40.8866 89.7682 41.7741 89.1336 42.4285C88.499 43.0829 87.6383 43.4506 86.7408 43.4506ZM79.973 50.4295C79.0755 50.4295 78.2148 50.0619 77.5802 49.4075C76.9455 48.7531 76.589 47.8655 76.589 46.9401C76.589 46.0146 76.9455 45.127 77.5802 44.4726C78.2148 43.8182 79.0755 43.4506 79.973 43.4506C80.8704 43.4506 81.7311 43.8182 82.3658 44.4726C83.0004 45.127 83.3569 46.0146 83.3569 46.9401C83.3569 47.8655 83.0004 48.7531 82.3658 49.4075C81.7311 50.0619 80.8704 50.4295 79.973 50.4295ZM93.5087 50.4295C92.6112 50.4295 91.7505 50.0619 91.1159 49.4075C90.4813 48.7531 90.1247 47.8655 90.1247 46.9401C90.1247 46.0146 90.4813 45.127 91.1159 44.4726C91.7505 43.8182 92.6112 43.4506 93.5087 43.4506C94.4061 43.4506 95.2669 43.8182 95.9015 44.4726C96.5361 45.127 96.8926 46.0146 96.8926 46.9401C96.8926 47.8655 96.5361 48.7531 95.9015 49.4075C95.2669 50.0619 94.4061 50.4295 93.5087 50.4295ZM86.7408 57.4085C85.8433 57.4085 84.9826 57.0409 84.348 56.3865C83.7134 55.732 83.3569 54.8445 83.3569 53.919C83.3569 52.9936 83.7134 52.106 84.348 51.4516C84.9826 50.7972 85.8433 50.4295 86.7408 50.4295C87.6383 50.4295 88.499 50.7972 89.1336 51.4516C89.7682 52.106 90.1247 52.9936 90.1247 53.919C90.1247 54.8445 89.7682 55.732 89.1336 56.3865C88.499 57.0409 87.6383 57.4085 86.7408 57.4085Z" fill="white"/>
</g>
<defs>
<filter id="filter0_dddddd_88_673" x="-0.704" y="0.296" width="134.408" height="107.408" filterUnits="userSpaceOnUse" color-interpolation-filters="sRGB">
<feFlood flood-opacity="0" result="BackgroundImageFix"/>
<feColorMatrix in="SourceAlpha" type="matrix" values="0 0 0 0 0 0 0 0 0 0 0 0 0 0 0 0 0 0 127 0" result="hardAlpha"/>
<feOffset/>
<feGaussianBlur stdDeviation="0.306"/>
<feColorMatrix type="matrix" values="0 0 0 0 0.898039 0 0 0 0 0.74902 0 0 0 0 0.941176 0 0 0 1 0"/>
<feBlend mode="normal" in2="BackgroundImageFix" result="effect1_dropShadow_88_673"/>
<feColorMatrix in="SourceAlpha" type="matrix" values="0 0 0 0 0 0 0 0 0 0 0 0 0 0 0 0 0 0 127 0" result="hardAlpha"/>
<feOffset/>
<feGaussianBlur stdDeviation="0.612"/>
<feColorMatrix type="matrix" values="0 0 0 0 0.898039 0 0 0 0 0.74902 0 0 0 0 0.941176 0 0 0 1 0"/>
<feBlend mode="normal" in2="effect1_dropShadow_88_673" result="effect2_dropShadow_88_673"/>
<feColorMatrix in="SourceAlpha" type="matrix" values="0 0 0 0 0 0 0 0 0 0 0 0 0 0 0 0 0 0 127 0" result="hardAlpha"/>
<feOffset/>
<feGaussianBlur stdDeviation="2.142"/>
<feColorMatrix type="matrix" values="0 0 0 0 0.898039 0 0 0 0 0.74902 0 0 0 0 0.941176 0 0 0 1 0"/>
<feBlend mode="normal" in2="effect2_dropShadow_88_673" result="effect3_dropShadow_88_673"/>
<feColorMatrix in="SourceAlpha" type="matrix" values="0 0 0 0 0 0 0 0 0 0 0 0 0 0 0 0 0 0 127 0" result="hardAlpha"/>
<feOffset/>
<feGaussianBlur stdDeviation="2"/>
<feColorMatrix type="matrix" values="0 0 0 0 0.933333 0 0 0 0 0.356863 0 0 0 0 0.635294 0 0 0 0.7 0"/>
<feBlend mode="normal" in2="effect3_dropShadow_88_673" result="effect4_dropShadow_88_673"/>
<feColorMatrix in="SourceAlpha" type="matrix" values="0 0 0 0 0 0 0 0 0 0 0 0 0 0 0 0 0 0 127 0" result="hardAlpha"/>
<feOffset/>
<feGaussianBlur stdDeviation="7.5"/>
<feColorMatrix type="matrix" values="0 0 0 0 0.933333 0 0 0 0 0.356863 0 0 0 0 0.635294 0 0 0 0.7 0"/>
<feBlend mode="normal" in2="effect4_dropShadow_88_673" result="effect5_dropShadow_88_673"/>
<feColorMatrix in="SourceAlpha" type="matrix" values="0 0 0 0 0 0 0 0 0 0 0 0 0 0 0 0 0 0 127 0" result="hardAlpha"/>
<feOffset/>
<feGaussianBlur stdDeviation="12.852"/>
<feColorMatrix type="matrix" values="0 0 0 0 1 0 0 0 0 0.866667 0 0 0 0 0 0 0 0 0.8 0"/>
<feBlend mode="normal" in2="effect5_dropShadow_88_673" result="effect6_dropShadow_88_673"/>
<feBlend mode="normal" in="SourceGraphic" in2="effect6_dropShadow_88_673" result="shape"/>
</filter>
<clipPath id="clip0_88_673">
<rect width="83" height="56" fill="white" transform="translate(25 26)"/>
</clipPath>
</defs>
</svg>
