<svg width="57" height="56" viewBox="0 0 57 56" fill="none" xmlns="http://www.w3.org/2000/svg">
<g id="adv1 2" clip-path="url(#clip0_88_668)">
<path id="Vector" d="M53.639 33.258H33.467V53.43H53.639V33.258ZM14.5558 3L25.9025 23.172H3.20898L14.5558 3ZM43.553 23.172C46.228 23.172 48.7934 22.1094 50.6849 20.2179C52.5764 18.3264 53.639 15.761 53.639 13.086C53.639 10.411 52.5764 7.84561 50.6849 5.95412C48.7934 4.06263 46.228 3 43.553 3C40.878 3 38.3126 4.06263 36.4211 5.95412C34.5296 7.84561 33.467 10.411 33.467 13.086C33.467 15.761 34.5296 18.3264 36.4211 20.2179C38.3126 22.1094 40.878 23.172 43.553 23.172Z" stroke="white" stroke-width="4.9067" stroke-linejoin="round"/>
<path id="Vector_2" d="M3.20898 33.2579L23.381 53.4299M23.381 33.2579L3.20898 53.4299" stroke="white" stroke-width="4.9067" stroke-linecap="round" stroke-linejoin="round"/>
</g>
<defs>
<clipPath id="clip0_88_668">
<rect width="57" height="56" fill="white"/>
</clipPath>
</defs>
</svg>
