<svg width="97" height="81" viewBox="0 0 97 81" fill="none" xmlns="http://www.w3.org/2000/svg">
<g id="tariff-premium" clip-path="url(#clip0_92_740)">
<path id="Vector" d="M92.2363 8.26532C90.9035 7.55196 89.3971 7.22765 87.8888 7.32939C86.3805 7.43112 84.9312 7.95481 83.7063 8.84069L66.7171 21.0683L51.6171 3.60097C50.6729 2.50376 49.4521 1.6795 48.0814 1.21386C46.7108 0.748231 45.2405 0.658235 43.8233 0.953229C42.4062 1.24823 41.0939 1.91744 40.0229 2.8913C38.952 3.86517 38.1614 5.10813 37.7334 6.49096L30.8575 28.5327L10.4003 24.0999C8.92465 23.7654 7.38466 23.8528 5.95638 24.3523C4.5281 24.8517 3.26916 25.7429 2.32349 26.9241C1.37783 28.1052 0.783591 29.5286 0.608722 31.0316C0.433852 32.5345 0.685405 34.0564 1.33463 35.4231L20.361 76.3256C21.1437 77.9828 22.4625 79.3276 24.1041 80.1425C25.7457 80.9573 27.6143 81.1946 29.4075 80.816C30.1187 80.6624 30.8043 80.4082 31.4438 80.0611C48.4922 71.3244 67.5825 67.3507 86.701 68.5589C87.7906 68.6359 88.8848 68.4919 89.9174 68.1353C90.9501 67.7787 91.8999 67.217 92.71 66.484C93.52 65.751 94.1733 64.8617 94.631 63.8697C95.0886 62.8777 95.3409 61.8034 95.3727 60.7114L96.5372 15.606C96.5807 14.1022 96.2005 12.6166 95.44 11.3186C94.6795 10.0206 93.5694 8.96257 92.2363 8.26532ZM85.6944 58.7529C65.9249 57.7909 46.2371 61.8891 28.4936 70.6596L11.5291 34.2943L30.2509 38.3434C32.2316 38.779 34.3036 38.4522 36.0541 37.4282C37.8045 36.4042 39.1048 34.7581 39.6958 32.8182L46.1533 12.1465L60.323 28.5245C61.639 30.0675 63.4881 31.0579 65.5017 31.2984C67.5154 31.5389 69.5457 31.0118 71.1881 29.8221L86.7391 18.6388L85.6944 58.7529Z" fill="white"/>
</g>
<defs>
<clipPath id="clip0_92_740">
<rect width="97" height="81" fill="white"/>
</clipPath>
</defs>
</svg>
