<svg width="118" height="118" viewBox="0 0 118 118" fill="none" xmlns="http://www.w3.org/2000/svg">
<g id="adv3" clip-path="url(#clip0_88_671)" filter="url(#filter0_dddddd_88_671)">
<path id="Vector" d="M29.3564 26.6047C29.1647 26.413 28.9371 26.2609 28.6866 26.1572C28.4361 26.0534 28.1677 26 27.8966 26C27.6254 26 27.357 26.0534 27.1065 26.1572C26.856 26.2609 26.6284 26.413 26.4367 26.6047C26.245 26.7964 26.0929 27.024 25.9892 27.2745C25.8854 27.525 25.832 27.7934 25.832 28.0645C25.832 28.3356 25.8854 28.6041 25.9892 28.8546C26.0929 29.1051 26.245 29.3327 26.4367 29.5244L31.2204 34.3039C29.7313 34.4981 28.3637 35.2274 27.3727 36.3557C26.3817 37.484 25.835 38.9343 25.8346 40.436V69.3029C25.8346 70.9435 26.4863 72.5169 27.6464 73.6769C28.8065 74.837 30.3798 75.4887 32.0204 75.4887H72.4052L76.529 79.6125H34.4328C34.8594 80.8191 35.6497 81.8636 36.6948 82.6022C37.7399 83.3408 38.9883 83.737 40.2681 83.7364H77.3826C78.3971 83.7364 79.3909 83.6333 80.3477 83.4312L88.2943 91.382C88.6815 91.7691 89.2066 91.9866 89.7541 91.9866C90.3017 91.9866 90.8268 91.7691 91.214 91.382C91.6012 90.9948 91.8187 90.4697 91.8187 89.9221C91.8187 89.3746 91.6012 88.8495 91.214 88.4623L29.3564 26.6047ZM67.073 70.1566V71.3648H42.33V67.241C42.33 65.0536 41.461 62.9558 39.9143 61.409C38.3676 59.8623 36.2697 58.9933 34.0823 58.9933H29.9585V50.7456H34.0823C35.8292 50.7465 37.5312 50.1926 38.943 49.1639C40.3549 48.1352 41.4037 46.6848 41.9382 45.0218L47.5961 50.6797C46.663 52.2553 46.2807 54.0967 46.5097 55.9136C46.7387 57.7305 47.5658 59.4195 48.8607 60.7144C50.1556 62.0093 51.8446 62.8365 53.6615 63.0654C55.4784 63.2944 57.3198 62.9121 58.8955 61.979L67.073 70.1566ZM35.2906 38.3741L38.2061 41.2897V42.498C38.2061 43.5917 37.7717 44.6406 36.9983 45.414C36.2249 46.1873 35.176 46.6218 34.0823 46.6218H29.9585V40.436C29.9585 39.8892 30.1757 39.3647 30.5624 38.978C30.9491 38.5914 31.4735 38.3741 32.0204 38.3741H35.2906ZM50.7138 53.8014L55.7737 58.8531C55.0745 59.0395 54.3385 59.0387 53.6396 58.8509C52.9408 58.6632 52.3036 58.295 51.7919 57.7833C51.2802 57.2716 50.912 56.6343 50.7242 55.9355C50.5364 55.2366 50.5357 54.5007 50.722 53.8014H50.7138ZM32.0204 71.3648C31.4735 71.3648 30.9491 71.1476 30.5624 70.7609C30.1757 70.3742 29.9585 69.8498 29.9585 69.3029V63.1172H34.0823C35.176 63.1172 36.2249 63.5516 36.9983 64.325C37.7717 65.0984 38.2061 66.1473 38.2061 67.241V71.3648H32.0204ZM75.3207 58.9933C73.1639 58.9933 71.2051 59.8181 69.737 61.1707L72.6567 64.0945C73.4004 63.4626 74.3448 63.1161 75.3207 63.1172H79.4445V69.3029C79.4447 69.7318 79.3106 70.15 79.061 70.4988L81.989 73.4268C82.9704 72.334 83.5684 70.8865 83.5684 69.3029V40.436C83.5684 38.7955 82.9167 37.2221 81.7566 36.0621C80.5966 34.902 79.0232 34.2503 77.3826 34.2503H42.8125L46.9363 38.3741H67.073V42.498C67.073 44.6854 67.942 46.7832 69.4887 48.33C71.0355 49.8767 73.1333 50.7456 75.3207 50.7456H79.4445V58.9933H75.3207ZM77.3826 38.3741C77.9295 38.3741 78.4539 38.5914 78.8406 38.978C79.2273 39.3647 79.4445 39.8892 79.4445 40.436V46.6218H75.3207C74.227 46.6218 73.1781 46.1873 72.4047 45.414C71.6313 44.6406 71.1969 43.5917 71.1969 42.498V38.3741H77.3826ZM84.9128 76.3464L87.8283 79.2661C90.3026 76.6722 91.8161 73.1628 91.8161 69.3029V48.6837C91.8167 47.404 91.4205 46.1556 90.6819 45.1105C89.9433 44.0654 88.8988 43.2751 87.6922 42.8485V69.3029C87.6922 72.0247 86.6365 74.5031 84.9128 76.3464Z" fill="white"/>
</g>
<defs>
<filter id="filter0_dddddd_88_671" x="-0.704" y="0.296" width="118.408" height="117.408" filterUnits="userSpaceOnUse" color-interpolation-filters="sRGB">
<feFlood flood-opacity="0" result="BackgroundImageFix"/>
<feColorMatrix in="SourceAlpha" type="matrix" values="0 0 0 0 0 0 0 0 0 0 0 0 0 0 0 0 0 0 127 0" result="hardAlpha"/>
<feOffset/>
<feGaussianBlur stdDeviation="0.306"/>
<feColorMatrix type="matrix" values="0 0 0 0 0.898039 0 0 0 0 0.74902 0 0 0 0 0.941176 0 0 0 1 0"/>
<feBlend mode="normal" in2="BackgroundImageFix" result="effect1_dropShadow_88_671"/>
<feColorMatrix in="SourceAlpha" type="matrix" values="0 0 0 0 0 0 0 0 0 0 0 0 0 0 0 0 0 0 127 0" result="hardAlpha"/>
<feOffset/>
<feGaussianBlur stdDeviation="0.612"/>
<feColorMatrix type="matrix" values="0 0 0 0 0.898039 0 0 0 0 0.74902 0 0 0 0 0.941176 0 0 0 1 0"/>
<feBlend mode="normal" in2="effect1_dropShadow_88_671" result="effect2_dropShadow_88_671"/>
<feColorMatrix in="SourceAlpha" type="matrix" values="0 0 0 0 0 0 0 0 0 0 0 0 0 0 0 0 0 0 127 0" result="hardAlpha"/>
<feOffset/>
<feGaussianBlur stdDeviation="2.142"/>
<feColorMatrix type="matrix" values="0 0 0 0 0.898039 0 0 0 0 0.74902 0 0 0 0 0.941176 0 0 0 1 0"/>
<feBlend mode="normal" in2="effect2_dropShadow_88_671" result="effect3_dropShadow_88_671"/>
<feColorMatrix in="SourceAlpha" type="matrix" values="0 0 0 0 0 0 0 0 0 0 0 0 0 0 0 0 0 0 127 0" result="hardAlpha"/>
<feOffset/>
<feGaussianBlur stdDeviation="2"/>
<feColorMatrix type="matrix" values="0 0 0 0 0.933333 0 0 0 0 0.356863 0 0 0 0 0.635294 0 0 0 0.7 0"/>
<feBlend mode="normal" in2="effect3_dropShadow_88_671" result="effect4_dropShadow_88_671"/>
<feColorMatrix in="SourceAlpha" type="matrix" values="0 0 0 0 0 0 0 0 0 0 0 0 0 0 0 0 0 0 127 0" result="hardAlpha"/>
<feOffset/>
<feGaussianBlur stdDeviation="7.5"/>
<feColorMatrix type="matrix" values="0 0 0 0 0.933333 0 0 0 0 0.356863 0 0 0 0 0.635294 0 0 0 0.7 0"/>
<feBlend mode="normal" in2="effect4_dropShadow_88_671" result="effect5_dropShadow_88_671"/>
<feColorMatrix in="SourceAlpha" type="matrix" values="0 0 0 0 0 0 0 0 0 0 0 0 0 0 0 0 0 0 127 0" result="hardAlpha"/>
<feOffset/>
<feGaussianBlur stdDeviation="12.852"/>
<feColorMatrix type="matrix" values="0 0 0 0 1 0 0 0 0 0.866667 0 0 0 0 0 0 0 0 0.8 0"/>
<feBlend mode="normal" in2="effect5_dropShadow_88_671" result="effect6_dropShadow_88_671"/>
<feBlend mode="normal" in="SourceGraphic" in2="effect6_dropShadow_88_671" result="shape"/>
</filter>
<clipPath id="clip0_88_671">
<rect width="67" height="66" fill="white" transform="translate(25 26)"/>
</clipPath>
</defs>
</svg>
