<svg width="20" height="20" viewBox="0 0 20 20" fill="none" xmlns="http://www.w3.org/2000/svg">
<g id="i">
<circle id="Ellipse 18" cx="10" cy="10" r="10" fill="#EE5BA2"/>
<path id="i_2" d="M9.21402 15.9962V7.34542H10.898V15.9962H9.21402ZM10.0645 6.01063C9.77159 6.01063 9.52002 5.91301 9.30976 5.71777C9.10325 5.51877 9 5.28222 9 5.00813C9 4.73029 9.10325 4.49374 9.30976 4.2985C9.52002 4.0995 9.77159 4 10.0645 4C10.3573 4 10.607 4.0995 10.8135 4.2985C11.0238 4.49374 11.1289 4.73029 11.1289 5.00813C11.1289 5.28222 11.0238 5.51877 10.8135 5.71777C10.607 5.91301 10.3573 6.01063 10.0645 6.01063Z" fill="white"/>
</g>
</svg>
