<svg width="100" height="16" viewBox="0 0 100 16" fill="none" xmlns="http://www.w3.org/2000/svg">
<g id="Win-Win">
<path d="M11.8935 0.553223H15.0324C15.2992 0.553223 15.4888 0.617584 15.6012 0.746308C15.7276 0.860729 15.7908 1.05381 15.7908 1.32556V9.64968C15.7908 10.1074 15.7697 10.5364 15.7276 10.9369C15.6995 11.3231 15.5942 11.7808 15.4116 12.31L14.3583 15.2277C14.288 15.4422 14.1827 15.6282 14.0423 15.7855C13.9159 15.9285 13.7403 16 13.5156 16H10.7138C10.489 16 10.2854 15.95 10.1028 15.8499C9.92025 15.7497 9.80087 15.5853 9.74469 15.3564L8.77563 11.8594C8.7335 11.7164 8.67732 11.6234 8.6071 11.5805C8.55092 11.5233 8.4807 11.4947 8.39644 11.4947H8.20684C8.12257 11.4947 8.04533 11.5233 7.97511 11.5805C7.91893 11.6234 7.86977 11.7164 7.82764 11.8594L6.83752 15.3564C6.78134 15.571 6.67601 15.7354 6.52152 15.8499C6.36703 15.95 6.17743 16 5.95272 16H3.17195C2.94724 16 2.75062 15.9285 2.58209 15.7855C2.4276 15.6425 2.31524 15.4565 2.24502 15.2277L1.1917 12.2671C1.00912 11.7379 0.896766 11.2802 0.854633 10.894C0.826544 10.4935 0.8125 10.0645 0.8125 9.60677V1.32556C0.8125 1.05381 0.868677 0.860729 0.981032 0.746308C1.10743 0.617584 1.30405 0.553223 1.57089 0.553223H4.81513C5.08198 0.553223 5.27157 0.617584 5.38393 0.746308C5.51033 0.860729 5.57353 1.05381 5.57353 1.32556V9.2206L6.79538 6.51741C6.90774 6.27426 7.0552 6.10263 7.23778 6.00251C7.42036 5.90239 7.64506 5.85234 7.91191 5.85234H8.7967C9.06354 5.85234 9.28825 5.90239 9.47083 6.00251C9.6534 6.10263 9.80087 6.27426 9.91322 6.51741L11.1351 9.2206V1.32556C11.1351 1.05381 11.1913 0.860729 11.3036 0.746308C11.43 0.617584 11.6266 0.553223 11.8935 0.553223Z" fill="#140E30"/>
<path d="M18.9308 16C18.664 16 18.4674 15.9428 18.341 15.8284C18.2286 15.6997 18.1724 15.4994 18.1724 15.2277V12.6747C18.1724 12.4029 18.2286 12.2098 18.341 12.0954C18.4674 11.9667 18.664 11.9023 18.9308 11.9023H21.0164V4.69383H18.9308C18.664 4.69383 18.4674 4.63661 18.341 4.52219C18.2286 4.39347 18.1724 4.19323 18.1724 3.92148V1.32556C18.1724 1.05381 18.2286 0.860729 18.341 0.746308C18.4674 0.617584 18.664 0.553223 18.9308 0.553223H27.9052C28.172 0.553223 28.3616 0.617584 28.474 0.746308C28.6004 0.860729 28.6636 1.05381 28.6636 1.32556V3.92148C28.6636 4.19323 28.6004 4.39347 28.474 4.52219C28.3616 4.63661 28.172 4.69383 27.9052 4.69383H25.8617V11.9023H27.9052C28.172 11.9023 28.3616 11.9667 28.474 12.0954C28.6004 12.2098 28.6636 12.4029 28.6636 12.6747V15.2277C28.6636 15.4994 28.6004 15.6997 28.474 15.8284C28.3616 15.9428 28.172 16 27.9052 16H18.9308Z" fill="#140E30"/>
<path d="M35.183 16H32.023C31.7562 16 31.5595 15.9428 31.4331 15.8284C31.3208 15.6997 31.2646 15.4994 31.2646 15.2277V1.32556C31.2646 1.05381 31.3208 0.860729 31.4331 0.746308C31.5595 0.617584 31.7562 0.553223 32.023 0.553223H34.2139C34.4808 0.553223 34.7055 0.59613 34.888 0.681946C35.0847 0.767762 35.2743 0.917939 35.4568 1.13248L39.5437 5.89524V1.32556C39.5437 1.05381 39.5999 0.860729 39.7123 0.746308C39.8387 0.617584 40.0353 0.553223 40.3021 0.553223H43.4621C43.7289 0.553223 43.9185 0.617584 44.0309 0.746308C44.1573 0.860729 44.2205 1.05381 44.2205 1.32556V15.2277C44.2205 15.4994 44.1573 15.6997 44.0309 15.8284C43.9185 15.9428 43.7289 16 43.4621 16H40.3021C40.0353 16 39.8387 15.9428 39.7123 15.8284C39.5999 15.6997 39.5437 15.4994 39.5437 15.2277V12.5889L35.9414 8.1479V15.2277C35.9414 15.4994 35.8782 15.6997 35.7518 15.8284C35.6394 15.9428 35.4498 16 35.183 16Z" fill="#140E30"/>
<path d="M47.2737 10.4864C47.0068 10.4864 46.8102 10.4292 46.6838 10.3147C46.5714 10.186 46.5153 9.98579 46.5153 9.71404V6.83921C46.5153 6.56747 46.5714 6.37438 46.6838 6.25996C46.8102 6.13124 47.0068 6.06687 47.2737 6.06687H52.9195C53.1863 6.06687 53.3759 6.13124 53.4883 6.25996C53.6147 6.37438 53.6779 6.56747 53.6779 6.83921V9.71404C53.6779 9.98579 53.6147 10.186 53.4883 10.3147C53.3759 10.4292 53.1863 10.4864 52.9195 10.4864H47.2737Z" fill="#140E30"/>
<path d="M66.8638 0.553223H70.0028C70.2696 0.553223 70.4592 0.617584 70.5715 0.746308C70.6979 0.860729 70.7611 1.05381 70.7611 1.32556V9.64968C70.7611 10.1074 70.7401 10.5364 70.698 10.9369C70.6699 11.3231 70.5645 11.7808 70.382 12.31L69.3286 15.2277C69.2584 15.4422 69.1531 15.6282 69.0126 15.7855C68.8862 15.9285 68.7107 16 68.486 16H65.6841C65.4594 16 65.2558 15.95 65.0732 15.8499C64.8906 15.7497 64.7712 15.5853 64.7151 15.3564L63.746 11.8594C63.7039 11.7164 63.6477 11.6234 63.5775 11.5805C63.5213 11.5233 63.4511 11.4947 63.3668 11.4947H63.1772C63.0929 11.4947 63.0157 11.5233 62.9455 11.5805C62.8893 11.6234 62.8401 11.7164 62.798 11.8594L61.8079 15.3564C61.7517 15.571 61.6464 15.7354 61.4919 15.8499C61.3374 15.95 61.1478 16 60.9231 16H58.1423C57.9176 16 57.721 15.9285 57.5525 15.7855C57.398 15.6425 57.2856 15.4565 57.2154 15.2277L56.1621 12.2671C55.9795 11.7379 55.8671 11.2802 55.825 10.894C55.7969 10.4935 55.7829 10.0645 55.7829 9.60677V1.32556C55.7829 1.05381 55.839 0.860729 55.9514 0.746308C56.0778 0.617584 56.2744 0.553223 56.5413 0.553223H59.7855C60.0523 0.553223 60.2419 0.617584 60.3543 0.746308C60.4807 0.860729 60.5439 1.05381 60.5439 1.32556V9.2206L61.7658 6.51741C61.8781 6.27426 62.0256 6.10263 62.2081 6.00251C62.3907 5.90239 62.6154 5.85234 62.8823 5.85234H63.7671C64.0339 5.85234 64.2586 5.90239 64.4412 6.00251C64.6238 6.10263 64.7712 6.27426 64.8836 6.51741L66.1054 9.2206V1.32556C66.1054 1.05381 66.1616 0.860729 66.274 0.746308C66.4004 0.617584 66.597 0.553223 66.8638 0.553223Z" fill="#140E30"/>
<path d="M73.9012 16C73.6344 16 73.4377 15.9428 73.3113 15.8284C73.199 15.6997 73.1428 15.4994 73.1428 15.2277V12.6747C73.1428 12.4029 73.199 12.2098 73.3113 12.0954C73.4377 11.9667 73.6344 11.9023 73.9012 11.9023H75.9868V4.69383H73.9012C73.6344 4.69383 73.4377 4.63661 73.3113 4.52219C73.199 4.39347 73.1428 4.19323 73.1428 3.92148V1.32556C73.1428 1.05381 73.199 0.860729 73.3113 0.746308C73.4377 0.617584 73.6344 0.553223 73.9012 0.553223H82.8755C83.1424 0.553223 83.332 0.617584 83.4443 0.746308C83.5707 0.860729 83.6339 1.05381 83.6339 1.32556V3.92148C83.6339 4.19323 83.5707 4.39347 83.4443 4.52219C83.332 4.63661 83.1424 4.69383 82.8755 4.69383H80.8321V11.9023H82.8755C83.1424 11.9023 83.332 11.9667 83.4443 12.0954C83.5707 12.2098 83.6339 12.4029 83.6339 12.6747V15.2277C83.6339 15.4994 83.5707 15.6997 83.4443 15.8284C83.332 15.9428 83.1424 16 82.8755 16H73.9012Z" fill="#140E30"/>
<path d="M90.1533 16H86.9934C86.7265 16 86.5299 15.9428 86.4035 15.8284C86.2911 15.6997 86.235 15.4994 86.235 15.2277V1.32556C86.235 1.05381 86.2911 0.860729 86.4035 0.746308C86.5299 0.617584 86.7265 0.553223 86.9934 0.553223H89.1843C89.4511 0.553223 89.6758 0.59613 89.8584 0.681946C90.055 0.767762 90.2446 0.917939 90.4272 1.13248L94.5141 5.89524V1.32556C94.5141 1.05381 94.5703 0.860729 94.6826 0.746308C94.809 0.617584 95.0057 0.553223 95.2725 0.553223H98.4325C98.6993 0.553223 98.8889 0.617584 99.0013 0.746308C99.1277 0.860729 99.1909 1.05381 99.1909 1.32556V15.2277C99.1909 15.4994 99.1277 15.6997 99.0013 15.8284C98.8889 15.9428 98.6993 16 98.4325 16H95.2725C95.0057 16 94.809 15.9428 94.6826 15.8284C94.5703 15.6997 94.5141 15.4994 94.5141 15.2277V12.5889L90.9117 8.1479V15.2277C90.9117 15.4994 90.8485 15.6997 90.7221 15.8284C90.6098 15.9428 90.4202 16 90.1533 16Z" fill="#140E30"/>
</g>
</svg>
