<svg width="21" height="21" viewBox="0 0 21 21" fill="none" xmlns="http://www.w3.org/2000/svg">
<g id="paperclip">
<path id="Vector" d="M18.7605 9.66876L10.7192 17.71C9.73413 18.6951 8.39803 19.2486 7.00487 19.2486C5.61171 19.2486 4.27561 18.6951 3.2905 17.71C2.30538 16.7249 1.75195 15.3888 1.75195 13.9956C1.75195 12.6025 2.30538 11.2664 3.2905 10.2813L10.7892 2.78251C11.446 2.12461 12.3372 1.75454 13.2668 1.75372C14.1964 1.7529 15.0882 2.1214 15.7461 2.77814C16.404 3.43488 16.7741 4.32608 16.7749 5.25567C16.7757 6.18527 16.4072 7.07711 15.7505 7.73501L8.23425 15.2338C7.90588 15.5621 7.46051 15.7466 6.99612 15.7466C6.53174 15.7466 6.08637 15.5621 5.758 15.2338C5.42963 14.9054 5.24515 14.46 5.24515 13.9956C5.24515 13.5313 5.42963 13.0859 5.758 12.7575L13.1867 5.33751" stroke="white" stroke-width="2" stroke-linecap="round" stroke-linejoin="round"/>
</g>
</svg>
