<svg width="80" height="82" viewBox="0 0 80 82" fill="none" xmlns="http://www.w3.org/2000/svg">
<g id="tarif-basic" clip-path="url(#clip0_92_742)">
<path id="Vector" d="M73.908 16.2467L51.2054 20.4928L36.8767 2.52109C34.2869 -0.755293 28.9742 0.723397 28.4495 4.8666L25.4786 27.7026L3.87986 35.7374C-0.0613008 37.1797 -0.307893 42.6766 3.50005 44.479L24.3623 54.3651L25.341 77.3848C25.5213 81.5786 30.6475 83.5075 33.5419 80.4319L49.3621 63.6917L71.5686 69.8974C75.6358 71.0354 79.0284 66.7355 77.0161 63.0517L65.9486 42.7905L78.7035 23.5478C81.0328 20.0374 78.0276 15.4455 73.908 16.2467ZM46.9783 55.1272L32.6512 70.3167L31.7753 49.4396L12.8985 40.4814L32.4745 33.1576L35.1233 12.5332L48.105 28.8566L68.6498 25.0137L57.1154 42.4362L67.1513 60.7638L46.9783 55.1272Z" fill="white"/>
</g>
<defs>
<clipPath id="clip0_92_742">
<rect width="80" height="82" fill="white"/>
</clipPath>
</defs>
</svg>
