<svg width="24" height="24" viewBox="0 0 24 24" fill="none" xmlns="http://www.w3.org/2000/svg">
<g id="upload-cloud">
<path id="Vector" d="M3.99936 14.899C3.2564 14.1399 2.69593 13.2217 2.3604 12.2139C2.02486 11.2062 1.92307 10.1352 2.06272 9.08229C2.20238 8.02935 2.57982 7.02199 3.16646 6.13652C3.7531 5.25106 4.53355 4.5107 5.44869 3.97154C6.36384 3.43238 7.38969 3.10854 8.44853 3.02457C9.50737 2.94059 10.5714 3.09868 11.5601 3.48685C12.5488 3.87502 13.4362 4.4831 14.1551 5.26503C14.874 6.04695 15.4055 6.98222 15.7094 7.99999H17.4994C18.4649 7.99988 19.4048 8.31031 20.1804 8.88543C20.9559 9.46055 21.5259 10.2699 21.8061 11.1938C22.0864 12.1177 22.062 13.1073 21.7367 14.0164C21.4113 14.9254 20.8022 15.7057 19.9994 16.242" stroke="#140E30" stroke-width="2" stroke-linecap="round" stroke-linejoin="round"/>
<path id="Vector_2" d="M12 12V21" stroke="#140E30" stroke-width="2" stroke-linecap="round" stroke-linejoin="round"/>
<path id="Vector_3" d="M16 16L12 12L8 16" stroke="#140E30" stroke-width="2" stroke-linecap="round" stroke-linejoin="round"/>
</g>
</svg>
